<svg width="30" height="30" viewBox="0 0 30 30" fill="none" xmlns="http://www.w3.org/2000/svg">
<path d="M25 3.75H5C4.30875 3.75 3.75 4.31 3.75 5V25C3.75 25.69 4.30875 26.25 5 26.25H15.7687V17.55H12.8463V14.1437H15.7687V11.6437C15.7687 8.7375 17.5437 7.15375 20.1437 7.15375C21.0175 7.15125 21.8925 7.19625 22.7625 7.2875V10.3125H20.9688C19.5587 10.3125 19.2838 10.985 19.2838 11.9688V14.1375H22.655L22.2175 17.5437H19.2825V26.25H25C25.6912 26.25 26.25 25.69 26.25 25V5C26.25 4.31 25.6912 3.75 25 3.75Z" fill="#333333"/>
</svg>
