<svg width="24" height="24" viewBox="0 0 24 24" fill="none" xmlns="http://www.w3.org/2000/svg">
<path d="M20.283 10.356H11.956V13.807H16.748C16.302 16 14.435 17.26 11.956 17.26C9.033 17.26 6.677 14.904 6.677 11.98C6.677 9.057 9.033 6.701 11.956 6.701C13.215 6.701 14.353 7.148 15.246 7.879L17.846 5.28C16.262 3.899 14.231 3.047 11.956 3.047C7.002 3.047 3.022 7.026 3.022 11.981C3.022 16.936 7.001 20.915 11.956 20.915C16.423 20.915 20.485 17.666 20.485 11.981C20.485 11.453 20.404 10.884 20.283 10.356Z" fill="white"/>
</svg>
