<svg width="37" height="37" viewBox="0 0 37 37" fill="none" xmlns="http://www.w3.org/2000/svg">
<path d="M37 0H0V37H37V0Z" fill="#333333"/>
<path d="M14.7024 13.3764C14.7024 12.7332 14.4748 12.2382 14.0232 11.8877C13.5715 11.5408 12.7549 11.1867 11.577 10.8326C10.399 10.4785 9.45958 10.0811 8.76221 9.64746C7.42891 8.80918 6.76407 7.71797 6.76407 6.37021C6.76407 5.19229 7.24464 4.22031 8.20577 3.45791C9.1669 2.69551 10.4135 2.3125 11.9491 2.3125C12.9681 2.3125 13.875 2.50039 14.6735 2.87617C15.4721 3.25195 16.0972 3.78672 16.5525 4.48047C17.0077 5.17422 17.2354 5.94385 17.2354 6.78574H14.7024C14.7024 6.02334 14.464 5.42354 13.9834 4.99355C13.5028 4.55996 12.8199 4.34678 11.9274 4.34678C11.0964 4.34678 10.4532 4.52383 9.99434 4.87793C9.53546 5.23203 9.30782 5.72705 9.30782 6.3666C9.30782 6.90137 9.55714 7.34941 10.0522 7.70713C10.5472 8.06484 11.3638 8.41533 12.5056 8.75137C13.6438 9.09102 14.5579 9.47402 15.2481 9.90762C15.9382 10.3412 16.4441 10.8362 16.7656 11.3963C17.0872 11.9563 17.2462 12.6104 17.2462 13.3619C17.2462 14.5796 16.7801 15.5516 15.8442 16.2706C14.9084 16.9824 13.6401 17.3438 12.0395 17.3438C10.9808 17.3438 10.0088 17.1486 9.11993 16.7548C8.23106 16.3646 7.54092 15.8226 7.04952 15.1324C6.55811 14.4423 6.31241 13.6401 6.31241 12.7224H8.85255C8.85255 13.5534 9.12716 14.1966 9.67637 14.6519C10.2256 15.1071 11.0133 15.3348 12.0358 15.3348C12.9211 15.3348 13.5859 15.1541 14.0304 14.7964C14.4784 14.4387 14.7024 13.9653 14.7024 13.3764Z" fill="#F7F7F7"/>
<path d="M14.7205 30.7201C14.7205 30.077 14.4929 29.5819 14.0412 29.2314C13.5896 28.8846 12.773 28.5305 11.595 28.1764C10.4171 27.8223 9.47764 27.4248 8.78028 26.9912C7.44698 26.1529 6.78214 25.0617 6.78214 23.714C6.78214 22.536 7.2627 21.5641 8.22384 20.8017C9.18497 20.0393 10.4316 19.6562 11.9672 19.6562C12.9861 19.6562 13.8931 19.8441 14.6916 20.2199C15.4901 20.5957 16.1152 21.1305 16.5705 21.8242C17.0258 22.518 17.2534 23.2876 17.2534 24.1295H14.7205C14.7205 23.3671 14.482 22.7673 14.0015 22.3373C13.5209 21.9037 12.838 21.6905 11.9455 21.6905C11.1145 21.6905 10.4713 21.8676 10.0124 22.2217C9.55352 22.5758 9.32589 23.0708 9.32589 23.7104C9.32589 24.2451 9.5752 24.6932 10.0702 25.0509C10.5652 25.4086 11.3818 25.7591 12.5236 26.0951C13.6618 26.4348 14.576 26.8178 15.2661 27.2514C15.9563 27.685 16.4621 28.18 16.7837 28.74C17.1053 29.3001 17.2643 29.9541 17.2643 30.7057C17.2643 31.9233 16.7982 32.8953 15.8623 33.6144C14.9265 34.3262 13.6582 34.6875 12.0575 34.6875C10.9988 34.6875 10.0269 34.4924 9.138 34.0985C8.24913 33.7083 7.55899 33.1663 7.06758 32.4762C6.57618 31.786 6.33047 30.9839 6.33047 30.0661H8.87423C8.87423 30.8972 9.14883 31.5403 9.69805 31.9956C10.2473 32.4509 11.035 32.6785 12.0575 32.6785C12.9428 32.6785 13.6076 32.4979 14.0521 32.1401C14.4965 31.7824 14.7205 31.3091 14.7205 30.7201Z" fill="#F7F7F7"/>
<path d="M22.1313 24.9859C22.9299 24.0609 23.938 23.5984 25.1557 23.5984C27.4718 23.5984 28.6497 24.9208 28.6822 27.5658V34.6695H26.2396V27.6561C26.2396 26.9045 26.0771 26.3734 25.7519 26.0626C25.4267 25.7519 24.9497 25.5965 24.321 25.5965C23.3418 25.5965 22.6119 26.0337 22.1313 26.9009V34.6695H19.6924V19.6599H22.135V24.9859H22.1313Z" fill="#F7F7F7"/>
<path d="M20.9028 14.8867C20.2344 14.8867 19.6924 15.4287 19.6924 16.0972V16.1333C19.6924 16.8018 20.2344 17.3438 20.9028 17.3438C21.5713 17.3438 22.1133 16.8018 22.1133 16.1333V16.0972C22.1133 15.4287 21.5713 14.8867 20.9028 14.8867Z" fill="#F7F7F7"/>
</svg>
