<svg width="30" height="30" viewBox="0 0 30 30" fill="none" xmlns="http://www.w3.org/2000/svg">
<path d="M20 7.5H10C5.88 7.5 2.5225 10.8525 2.5 14.9825C2.5 14.9887 2.5 14.9938 2.5 15V15.02C2.5 15.025 2.5 15.03 2.5 15.035C2.51875 19.1525 5.87875 22.5 10 22.5H20C24.1287 22.5 27.4937 19.14 27.5 15.0075V15.0063C27.5 15.0038 27.5 15.0025 27.5 15C27.5 14.995 27.5 14.99 27.5 14.985C27.4813 10.8562 24.1213 7.5 20 7.5ZM10 18.75C7.96625 18.75 6.25 17.0338 6.25 15C6.25 12.9662 7.96625 11.25 10 11.25C12.0338 11.25 13.75 12.9662 13.75 15C13.75 17.0338 12.0338 18.75 10 18.75Z" fill="#333333"/>
</svg>
